<svg xmlns:dc="http://purl.org/dc/elements/1.1/" xmlns:cc="http://creativecommons.org/ns#" xmlns:rdf="http://www.w3.org/1999/02/22-rdf-syntax-ns#" xmlns:svg="http://www.w3.org/2000/svg" xmlns="http://www.w3.org/2000/svg" xmlns:sodipodi="http://sodipodi.sourceforge.net/DTD/sodipodi-0.dtd" xmlns:inkscape="http://www.inkscape.org/namespaces/inkscape" version="1.1" viewBox="0 -0.25 8 9"  x="0px" y="0px"><svg:g><svg:path style="color:#000000;font-style:normal;font-variant:normal;font-weight:normal;font-stretch:normal;font-size:medium;line-height:normal;font-family:sans-serif;font-variant-ligatures:normal;font-variant-position:normal;font-variant-caps:normal;font-variant-numeric:normal;font-variant-alternates:normal;font-feature-settings:normal;text-indent:0;text-align:start;text-decoration:none;text-decoration-line:none;text-decoration-style:solid;text-decoration-color:#000000;letter-spacing:normal;word-spacing:normal;text-transform:none;writing-mode:lr-tb;direction:ltr;text-orientation:mixed;dominant-baseline:auto;baseline-shift:baseline;text-anchor:start;white-space:normal;shape-padding:0;clip-rule:nonzero;display:inline;overflow:visible;visibility:visible;opacity:1;isolation:auto;mix-blend-mode:normal;color-interpolation:sRGB;color-interpolation-filters:linearRGB;solid-color:#000000;solid-opacity:1;vector-effect:none;fill:#000000;fill-opacity:1;fill-rule:nonzero;stroke:none;stroke-width:100%;stroke-linecap:round;stroke-linejoin:round;stroke-miterlimit:4;stroke-dasharray:none;stroke-dashoffset:0;stroke-opacity:1;color-rendering:auto;image-rendering:auto;shape-rendering:auto;text-rendering:auto;enable-background:accumulate" d="M 1.2570288,3.3333334e-7 A 0.26460979,0.26460979 0 0 0 0.9929625,0.26561833 V 8.2031173 a 0.26460979,0.26460979 0 0 0 0.2640663,0.263549 H 7.2101527 A 0.26460979,0.26460979 0 0 0 7.4737042,8.2031173 V 0.26561833 A 0.26460979,0.26460979 0 0 0 7.2101527,3.3333334e-7 Z M 3.0109271,1.0821033 c 0.4917178,0 0.8960692,0.402804 0.8960692,0.894519 1e-6,0.491718 -0.4043514,0.896586 -0.8960692,0.896586 -0.491717,0 -0.8965861,-0.404868 -0.8965861,-0.896586 0,-0.491715 0.4048691,-0.894519 0.8965861,-0.894519 z m 0,0.529167 c -0.2057342,0 -0.3674194,0.159618 -0.3674194,0.365352 0,0.205735 0.1616852,0.367419 0.3674194,0.367419 0.205735,3e-6 0.3669025,-0.161684 0.3669025,-0.367419 0,-0.205734 -0.1611675,-0.365352 -0.3669025,-0.365352 z m 1.6014525,0.101804 h 1.4707116 a 0.2646485,0.2646485 0 0 1 0,0.529166 H 4.6123796 a 0.2646485,0.2646485 0 0 1 0,-0.529166 z m -1.6014525,1.624705 c 0.4917178,0 0.8960692,0.404868 0.8960692,0.896588 1e-6,0.491715 -0.4043514,0.896586 -0.8960692,0.896586 -0.491717,0 -0.8965861,-0.404871 -0.8965861,-0.896586 0,-0.49172 0.4048691,-0.896588 0.8965861,-0.896588 z m 0,0.529685 c -0.2057342,0 -0.3674194,0.161169 -0.3674194,0.366903 0,0.205733 0.1616852,0.367419 0.3674194,0.367419 0.205735,0 0.3669025,-0.161686 0.3669025,-0.367419 0,-0.205734 -0.1611675,-0.366903 -0.3669025,-0.366903 z m 1.6014525,0.101286 h 1.4707116 a 0.2646485,0.2646485 0 0 1 0,0.529166 H 4.6123796 a 0.2646485,0.2646485 0 0 1 0,-0.529166 z m -1.6014525,1.626774 c 0.4917178,0 0.8960692,0.402802 0.8960692,0.89452 1e-6,0.491714 -0.4043514,0.896585 -0.8960692,0.896585 -0.491717,0 -0.8965861,-0.404871 -0.8965861,-0.896585 0,-0.491718 0.4048691,-0.89452 0.8965861,-0.89452 z m 0,0.529683 c -0.2057342,0 -0.3674194,0.159102 -0.3674194,0.364837 0,0.205732 0.1616852,0.367418 0.3674194,0.367418 0.205735,0 0.3669025,-0.161686 0.3669025,-0.367418 0,-0.205735 -0.1611675,-0.364837 -0.3669025,-0.364837 z m 1.5740639,0.101285 a 0.26460981,0.26460981 0 0 1 0.027389,0 h 1.4707116 a 0.26484262,0.26484262 0 0 1 0,0.529685 H 4.6123796 A 0.26519643,0.26519643 0 1 1 4.584991,6.2264923 Z"/></svg:g></svg>